<!-- Scaled down SVG from IcoMoon -->
<svg width="16" height="16" viewBox="0 0 16 16" xmlns="http://www.w3.org/2000/svg" fill="#FA7343">
    <path d="M 14.65625 10.898438 C 14.691406 10.824219 14.691406 10.75 14.730469 10.675781 C 15.628906 7.160156 13.496094 3.046875 9.832031 0.878906 C 11.441406 3.046875 12.074219 5.628906 11.515625 7.945312 C 11.476562 8.132812 11.402344 8.355469 11.328125 8.542969 C 11.210938 8.476562 11.113281 8.414062 11.019531 8.347656 L 11.027344 8.355469 C 11.027344 8.355469 7.402344 6.113281 3.515625 2.1875 C 3.402344 2.074219 5.609375 5.328125 8.074219 7.90625 C 6.917969 7.234375 3.628906 4.878906 1.570312 2.972656 C 1.796875 3.382812 2.132812 3.796875 2.46875 4.207031 C 4.1875 6.414062 6.429688 9.105469 9.125 11.160156 C 7.214844 12.320312 4.5625 12.394531 1.871094 11.160156 C 1.195312 10.863281 0.636719 10.488281 0 10.039062 C 1.121094 11.796875 2.878906 13.402344 4.972656 14.261719 C 7.476562 15.347656 10.019531 15.273438 11.851562 14.261719 L 11.890625 14.261719 C 11.964844 14.226562 12.039062 14.1875 12.113281 14.113281 C 13.011719 13.664062 14.769531 13.179688 15.742188 15.046875 C 16.003906 15.570312 16.488281 13.140625 14.65625 10.898438 Z M 14.65625 10.898438 "/>
</svg>
