<svg width="16" height="16" viewBox="0 0 16 16" xmlns="http://www.w3.org/2000/svg" fill="none">
  <path d="M7.5 1 q0.5 -0.3 1 0 l5.2 3 q0.6 0.5 0 1 l-5.2 3 q-0.5 0.3 -1 0 l-5.2 -3 q-0.6 -0.5 0 -1 z" fill="#C5C5C5" />
  <path d="M2.4 5.75 l5.1 3 q0.5 0.3 1 0 l5.1 -3 q0.6 1 -0.1 1.5 l-5 3 q-0.5 0.3 -1 0 l-5.2 -3 q-0.6 -0.5 0.1 -1.5 z" fill="#C5C5C5" />
  <path d="M2.4 8 l5.1 3 q0.5 0.3 1 0 l1.7 -1 q-0.3 0.7 0 1.5 l-1.7 1 q-0.5 0.3 -1 0 l-5.2 -3 q-0.6 -0.5 0.1 -1.5 z" fill="#C5C5C5" />
  <path fill-rule="evenodd" clip-rule="evenodd" d="M13.379 7.998a2.53 2.53 0 0 0-1.19.348h-.03a2.51 2.51 0 0 0-.799 3.53L9 14.23l.71.71 2.35-2.36c.325.22.7.358 1.09.4a2.47 2.47 0 0 0 1.14-.13 2.51 2.51 0 0 0 1-.63 2.46 2.46 0 0 0 .58-1 2.63 2.63 0 0 0 .07-1.15 2.53 2.53 0 0 0-1.35-1.81 2.53 2.53 0 0 0-1.211-.258zm.24 3.992a1.5 1.5 0 0 1-.979-.244 1.55 1.55 0 0 1-.56-.68 1.49 1.49 0 0 1-.08-.86 1.49 1.49 0 0 1 1.18-1.18 1.49 1.49 0 0 1 .86.08c.276.117.512.311.68.56a1.5 1.5 0 0 1-1.1 2.324z" fill="#C5C5C5" />
</svg>
