<!-- Generated by IcoMoon.io -->
<svg version="1.1" xmlns="http://www.w3.org/2000/svg" width="1024" height="1024" viewBox="0 0 1024 1024">
<g id="icomoon-ignore">
</g>
<path fill="#fa7343" d="M937.984 697.515c2.389-4.779 2.389-9.557 4.779-14.336 57.429-224.939-78.976-488.107-313.472-626.901 102.912 138.795 143.573 303.872 107.691 452.224-2.389 11.947-7.168 26.325-11.947 38.272-7.583-4.21-13.855-8.165-19.903-12.415l0.703 0.469c0 0-232.064-143.573-480.853-394.795-7.211-7.168 133.973 200.96 291.883 366.080-74.155-43.093-284.715-193.792-416.341-315.861 14.379 26.325 35.925 52.651 57.429 78.976 110.080 141.184 253.653 313.429 425.941 445.013-122.027 74.24-291.925 78.976-464.213 0-43.093-19.115-78.933-43.051-119.637-71.765 71.765 112.469 184.235 215.381 318.251 270.379 160.299 69.419 322.987 64.64 440.235 0h2.432c4.779-2.389 9.557-4.779 14.336-9.557 57.429-28.715 169.899-59.819 232.107 59.819 16.725 33.493 47.829-122.027-69.419-265.6z"></path>
</svg>
